Coordinates
version=1
nRows=8
nColumns=36
inDegrees=yes

Units are S.I. units (second, meters, Newtons, ...)
If the header above contains a line with 'inDegrees', this indicates whether rotational values are in degrees (yes) or radians (no).

endheader
time	pelvis_tilt	pelvis_list	pelvis_rotation	pelvis_tx	pelvis_ty	pelvis_tz	hip_flexion_r	hip_adduction_r	hip_rotation_r	knee_angle_r	knee_angle_r_beta	ankle_angle_r	subtalar_angle_r	mtp_angle_r	hip_flexion_l	hip_adduction_l	hip_rotation_l	knee_angle_l	knee_angle_l_beta	ankle_angle_l	subtalar_angle_l	mtp_angle_l	lumbar_extension	lumbar_bending	lumbar_rotation	arm_flex_r	arm_add_r	arm_rot_r	elbow_flex_r	pro_sup_r	arm_flex_l	arm_add_l	arm_rot_l	elbow_flex_l	pro_sup_l
      1.43333330	    -12.85206682	      1.88685582	     -4.06181526	      0.66486244	      1.22940221	      0.00700372	     13.94249540	     -0.10405133	     -2.68828786	      0.20761465	      0.00362356	      5.80305198	      1.56020208	     -7.49999985	     12.92300175	      2.14864605	     -8.08545831	      0.22538559	      0.00393372	      5.17536304	     -0.63901003	     -7.49999985	     -6.93042879	     -3.28477935	     -1.62612869	     -1.80973887	    -18.91406512	     36.76558073	     21.64772596	     99.23637681	     -7.37577483	    -21.08229021	     13.14812323	     31.51485598	    105.26770988
      1.45000000	    -12.92733883	      1.88597116	     -3.93000346	      0.67039652	      1.22649402	      0.00453994	     13.95940114	     -0.15316739	     -2.74488362	      0.20566886	      0.00358960	      6.01651242	      1.75032411	     -7.49999985	     12.92513656	      2.22156943	     -8.06261397	      0.22553276	      0.00393629	      5.23696996	     -0.54144213	     -7.49999985	     -7.04618911	     -3.34126590	     -1.41660431	     -2.73776761	    -19.46166104	     38.40255745	     22.19552959	     99.28370100	     -8.23619736	    -21.56616736	     14.12938039	     32.00165231	    104.62384177
      1.46666670	    -12.91425879	      1.88225907	     -3.78852179	      0.67096311	      1.22698104	      0.00384789	     13.86479858	     -0.20350136	     -2.74264069	      0.20520803	      0.00358156	      6.24099360	      1.73201953	     -7.49999985	     12.83838037	      2.28007157	     -7.91720556	      0.22648300	      0.00395287	      5.40671632	     -0.28237707	     -7.49999985	     -7.42074961	     -3.39259911	     -1.20324858	     -3.92824780	    -20.10784999	     39.21808599	     22.87623982	     97.99295085	     -9.20375315	    -22.01525532	     14.50881689	     32.52316888	    103.29622022
      1.48333330	    -13.07624475	      1.88967180	     -3.66922500	      0.67124783	      1.22955137	      0.00419425	     13.97902673	     -0.23451464	     -2.73349862	      0.20941578	      0.00365499	      6.36858460	      1.76760905	     -7.49999986	     12.98314248	      2.35218103	     -7.55859688	      0.22751836	      0.00397094	      5.48696534	     -0.26064949	     -7.49999986	     -7.38754818	     -3.46102879	     -0.83572317	     -4.96317297	    -21.22112974	     45.57484450	     23.00359971	     96.84148044	     -9.70083735	    -22.96098344	     17.62480066	     32.36355649	    103.56877280
      1.50000000	    -13.25641151	      1.84499972	     -3.53844301	      0.66544634	      1.22974324	      0.00663299	     14.15323422	     -0.19168636	     -2.68755782	      0.21503544	      0.00375308	      6.47675649	      1.75272206	     -7.49999987	     13.21798227	      2.33979409	     -7.25687471	      0.23331041	      0.00407203	      5.62279899	     -0.05949480	     -7.49999987	     -7.66251044	     -3.64710325	     -1.20817032	     -4.82130743	    -22.99602854	     58.11503682	     24.08109626	     86.48948136	    -11.41833796	    -24.09518129	     19.34726971	     33.70020418	    102.58287595
      1.51666670	    -13.56748633	      1.80408934	     -3.44321614	      0.65857440	      1.22676009	      0.01042989	     14.53904632	     -0.10511644	     -2.59014081	      0.22408573	      0.00391103	      6.53547211	      1.63450478	     -7.49999987	     13.72514082	      2.28695257	     -6.93747988	      0.25533016	      0.00445635	      5.74461347	      0.09173060	     -7.49999987	     -8.14922782	     -3.82662063	     -0.77251844	     -6.49850526	    -24.81333428	     62.99012394	     27.32324967	     83.48527035	    -12.35977791	    -26.00000345	     24.31577222	     35.43095254	     99.60139600
      1.53333330	    -13.72164551	      1.74739644	     -3.33435891	      0.65870248	      1.22196025	      0.01010850	     14.74108509	     -0.05741941	     -2.51839497	      0.23517486	      0.00410458	      6.49978111	      1.41259493	     -7.49999987	     14.02520955	      2.25117432	     -6.74635002	      0.28048612	      0.00489541	      5.48940540	     -0.30455632	     -7.49999987	     -9.09940556	     -3.96953508	     -0.74404532	     -8.57028302	    -26.37934623	     64.77286866	     29.87215884	     80.12660205	    -14.71243483	    -26.92695003	     25.72646956	     36.07613262	     95.50523571
      1.55000000	    -13.94946398	      1.80323645	     -3.45135340	      0.66600511	      1.22462120	      0.00739564	     15.02541379	     -0.08045676	     -2.54119721	      0.24910010	      0.00434762	      6.45897694	      1.58437025	     -7.49999987	     14.33444176	      2.28572277	     -6.79886473	      0.30880956	      0.00538974	      5.53080528	     -0.17312614	     -7.49999987	     -9.09494764	     -4.16023822	     -0.95549695	     -7.49056510	    -28.65967252	     82.22185867	     32.48369620	     65.49378179	    -16.45565158	    -28.29248521	     32.49550534	     35.06580075	     93.08890013
